<?xml version="1.0" encoding="UTF-8"?>
<svg version="1.1" viewBox="0 0 2048 2048" width="1280" height="1280" xmlns="http://www.w3.org/2000/svg">
<path transform="translate(1176,126)" d="m0 0h70l31 2 40 4 35 5 36 7 38 9 28 8 36 12 30 11 26 11 24 11 23 11 22 12 25 14 23 14 34 23 19 14 17 13 22 18 15 13 13 12 12 11 28 28 7 8 12 13 9 11 12 14 13 17 10 13 12 17 18 27 13 21 16 28 15 29 15 31 15 36 13 36 12 38 10 38 8 38 6 35 6 50 3 31v85l-5 53-7 49-5 28-9 39-10 36-12 36-12 32-11 26-16 34-10 20-13 23-16 27-22 33-13 18-9 12-11 14-9 11-12 14-9 10-7 8-14 15-29 29-8 7-12 11-11 9-14 12-14 11-18 14-20 14-17 12-21 13-22 13-16 9-26 14-29 14-30 13-37 14-33 11-35 10-29 7-35 7-39 6-37 4-44 3-15 1-11 26-6 12-34 15-116 50-35 15-4 2h-4l-2-47-3-87v-11l-16-4-31-9-36-12-34-13-25-11-30-14-27-14-24-14-22-13-30-20-14-10-16-12-13-10-9-7-4 1-95 41-40 17-18 6-21 4h-30l-20-4-17-6-16-8-12-8-11-9-13-13-11-15-12-23-18-42-48-111-24-56-7-2-44-7-40-9-31-9-25-9-20-9-23-12-15-10-13-10-12-11-9-9-10-13-9-15-7-16-6-20-2-11v-36l7-27 7-20 8-17 8-14 12-19 13-17 9-11 12-14 15-16 17-17 8-7 11-10 11-9 13-11 10-8 18-14 14-10 17-12 39-26 21-13 28-17 25-14 14-8 28-15 19-10 3-11 7-35 10-40 11-36 9-26 14-36 13-29 17-35 16-29 9-15 13-21 21-31 14-19 10-13 13-16 9-11 10-11 9-11 16-16 2-3h2l2-4 12-12 8-7 12-12 8-7 14-12 13-11 14-11 21-16 17-12 30-20 23-14 28-16 37-19 31-14 38-15 41-14 39-11 34-8 36-7 34-5 26-3zm-802 770-21 12-23 13-28 17-24 15-12 8-19 13-20 14-21 16-13 10-16 13-10 9-8 7-10 9-8 8-8 7-14 15-7 8-13 16-10 14-8 13-11 21-7 19-3 17v18l4 17 8 16 11 14 12 11 13 9 17 10 22 10 25 9 28 8 39 8h5l-1-5-9-20-42-98v-4l31-13 34-15 26-11 60-26 42-18 1-1-1-12-6-45-3-35-1-18v-73l1-30z" fill="#010001"/>
<path transform="translate(1705,832)" d="m0 0h38l27 2 33 5 27 6 25 7 2 1-1 3-30 13-67 29-21 9h-2l18 42 5 12 5-1 60-26 67-29 40-17 6 1 18 11 13 10 9 11 5 10 2 7v20l-4 13-5 9-10 11-14 8-43 19-26 11-30 13-111 48-35 15-46 20-30 13-37 16-35 15-53 23-95 41-9 3-3 9-11 26-123 287-23 54-72 168-6 12-4 3-30 13-51 22-5 1-1-1-2-51-7-217-5-147v-30l-35 15-39 17-30 13-35 15-39 17-30 13-95 41-77 33-53 23-42 18-25 11-35 15-16 5-12 2-16-1-15-4-14-7-10-8-10-10-8-13-13-29-23-54-14-32-29-67-21-49-17-39-12-28-20-46-4-9 1-3 97-42 4-2h8l19 10 33 17 19 10 78 40 19 10 37 19 4-1 30-13 134-58 26-11 39-17 30-13 72-31 49-21 32-14 30-13 67-29 95-41 35-15 39-17 56-24 32-14 37-16 74-32 95-41 29-11 26-8 31-7 26-4 18-2z" fill="#E3ECF4"/>
<path transform="translate(1177,186)" d="m0 0h66l45 3 40 5 39 7 31 7 33 9 22 7-1 3-16 8-56 30-23 12-22 12-23 12-22 12-29 15-18 10-1 1 2 33 6 69 7 86 3 38 1 8 10 6 56 32 24 14 28 16 26 15 28 16 24 14 10 6 1 1-1 11-25 139-2 9-5 3-25 11-65 28-63 27-23 10-24-10-43-18-37-15-38-16-46-19-36-15-1-2-6-109-1-12-51 3h-8l5 93-2 1-26-11-39-16-145-60-36-15-5-1-25 11-39 17-28 12-39 17-43 18-18 8 6 7 152 152 7 8 9 8v2h2l7 8 129 129v2h2v3l-34 15-25 11-72 31-63 27-39 17-19 8h-6l-22-12-22-11-19-10-39-20-23-12-3-5-9-43-6-38-4-35-2-26-1-23v-45l2-39 4-38 6-39 7-34 9-36 13-42 14-38 15-35 16-33 13-24 13-22 12-19 10-15 14-20 16-21 13-16 9-11 10-11 7-8 11-12 23-23 2-3 5 1 25 13 24 14 16 8 26 14 16 9 29 16 24 13 76 42 24 13 19 11 2 2 5 93v8l50-3h10l-6-103-2-32-21-12-22-12-29-16-24-13-47-26-24-13-27-15-24-13-23-13-28-15-17-10-6-3 2-4 17-13 18-13 14-10 20-13 18-11 17-10 24-13 28-14 32-14 39-15 34-11 37-10 36-8 40-7 34-4 23-2z" fill="#A3D6F6"/>
<path transform="translate(1526,254)" d="m0 0 7 1 25 12 20 10 23 13 22 13 27 18 17 12 16 12 13 10 13 11 11 9 12 11 8 7 8 8 8 7 16 16 7 8 9 9 7 8 12 14 14 17 15 20 13 18 14 21 12 19 13 22 15 28 12 24 9 20 11 27 10 27 11 34 10 37 8 36 5 27v4l-6-2-19-11-23-12-25-11-30-11-30-9-36-8-27-4-37-3h-46l-33 3-36 6-27 6-27 8-28 10-41 17h-2l1-8 6-34 10-54 11-62v-3l-18-10-24-14-26-15-28-16-24-14-56-32-26-15-13-8-2-3-9-110-4-48 1-5 23-12 22-12 23-12 22-12 23-12 22-12 23-12 22-12 25-13z" fill="#9CE4C0"/>
<path transform="translate(673,401)" d="m0 0 5 1 25 13 24 14 7 3-4 3-5 5-8 9-11 14-13 16-14 19-24 36-15 25-14 25-12 23-14 30-11 27-10 27-11 34-10 35-3 17h5l-4 3-26 11-2 2 158 158 7 8 9 8v2h2l7 8 129 129v2h2v3l-34 15-25 11-72 31-63 27-39 17-19 8h-6l-22-12-22-11-19-10-39-20-23-12-3-5-9-43-6-38-4-35-2-26-1-23v-45l2-39 4-38 6-39 7-34 9-36 13-42 14-38 15-35 16-33 13-24 13-22 12-19 10-15 14-20 16-21 13-16 9-11 10-11 7-8 11-12 23-23z" fill="#54CD91"/>
<path transform="translate(1981,1050)" d="m0 0h2l-1 13-5 33-8 40-9 36-13 42-11 30-15 36-15 31-8 16-13 24-14 23-13 20-16 23-14 19-13 16-11 14-11 12-7 8-11 12-7 7-7 8-17 16-7 7-8 7-10 9-11 9-13 11-19 14-12 9-5-2-43-29-25-16-24-16-17-11-6-5 2-4 11-14 14-17 11-14 26-32 11-14 9-11 13-16 11-14 14-17 11-14 14-17 11-14 9-11 6-8-3-12-16-55-14-49v-4l32-14 60-26 125-54 72-31z" fill="#9CE4C0"/>
<path transform="translate(732,433)" d="m0 0 5 1 23 12 23 13 24 13 23 13 28 15 47 26 24 13 18 10 10 6 2 2 5 93v8l30-2h11l-1 2h-8v13l1 24v19h14l-3 2-32 2h-8l5 93-2 1-26-11-39-16-145-60-36-15-5-1-25 11-39 17-28 12-39 17-26 11-9 1 2-14 9-32 8-26 10-29 11-28 12-27 12-25 10-19 14-24 13-22 21-31 14-19 11-14 13-16 8-10 6-7z" fill="#9CE4C0"/>
<path transform="translate(1625,1204)" d="m0 0h3l7 23 16 55v5l-11 13-11 14-13 16-9 11-13 16-11 14-13 16-8 10-13 16-11 14-9 11-13 16-11 14-9 11-14 17-11 14-13 16-2 5 5 2 17 11 44 29 15 10 44 29 12 8 11 7 4 4-9 6-24 13-19 10-29 14-34 14-30 11-32 10-42 11-33 7-45 7-38 4-21 1 1-5 93-217 11-26 13-30 11-26 13-30 11-26 27-63 14-33 3-3 26-11 41-18 26-11 53-23 28-12z" fill="#A3D6F6"/>
<path transform="translate(720,773)" d="m0 0 5 1 46 19 242 100 123 51 44 18v3l-39 17-30 13-25 11-65 28-102 44-14 6-5-1-2-4-3-1-7-8-193-193-5-6-6-5-6-7-6-5-7-8-33-33 1-2 29-13 21-9z" fill="#E3ECF4"/>
<path transform="translate(545,813)" d="m0 0 4 1 137 137 7 8 9 8v2h2l7 8 129 129v2h2v3l-34 15-25 11-72 31-63 27-39 17-19 8h-6l-9-5-6-14-6-19-12-48-8-43-5-36-3-33-2-42v-55l2-33 5-48 3-19z" fill="#9CE4C0"/>
<path transform="translate(339,1194)" d="m0 0 4 1 8 16 13 29 12 28 11 25 15 35 7 16 4 10 8 18 4 10 17 39 13 30 7 17 7 15 18 42 9 20 8 14 9 13 5 5 12 10 12 7 9 4v6l-33 14-15 4-15 1-14-2-15-5-13-8-10-9-8-9-8-14-23-53-12-28-13-30-29-67-21-49-17-39-12-28-20-46-4-9 1-3 67-29z" fill="#CAD8E9"/>
<path transform="translate(998,1475)" d="m0 0h2l1 10 7 211v17l-12-3-29-9-34-12-29-12-29-13-22-11-22-12-21-12-19-12-18-12-14-10-10-7-3-3 15-7 20-9 111-48 102-44z" fill="#9CE4C1"/>
<path transform="translate(1127,1388)" d="m0 0 4 1 3 99 3 93 5 125 1 39v55l2 1-69 30-4-1-2-51-7-217-5-147v-24h1l1 23 3 3 1-3 8-5 31-12z" fill="#CAD7E9"/>
<path transform="translate(702,781)" d="m0 0 3 1-1 3 5 1 12 11 5 5v2l4 2 4 4v2l4 2 34 34 7 8 78 78v2l4 2v2l3 1 5 6 8 7v2l3 1 7 8 74 74 9 7 3 3-1 4 2 1-41 18-28 12-5-1-2-4-3-1-7-8-193-193-5-6-6-5-6-7-6-5-7-8-33-33 1-2 29-13 21-9z" fill="#CAD7E9"/>
<path transform="translate(795,1563)" d="m0 0 6 2 10 10 11 9 16 13 18 14 17 12 20 14 16 10 21 13 25 14 32 16 19 9 2 6v8l-12-3-29-9-34-12-29-12-29-13-22-11-22-12-21-12-19-12-18-12-14-10-10-7-3-3 15-7 20-9z" fill="#54CD91"/>
<path transform="translate(1055,201)" d="m0 0 6 1-4 2-14 4-3 3-7 4-8 2v2l-21 8-17 8-15 7-7 3-2 1h-7l-1 4-3 2h-6v2l-8 3-3 2h-3v2l-10 3-3 2-6 1-1 2-17 6-10 4-17 9-9 4-8 5-12 6-11 7-7 4h-2v2l-10 7-8 7-1 3h-2l-2 7-5 1-1 6 4-4h8l1 2 10-9 7-4 9-5h4v4l-6 7-7 4-3 3h-2v2h-2l-2 4-15 14-7 6h-2v2l-12 3-5-2h-3l-3-3-2 4-5-1-2-3-1-3h-2l-4-4-4-2 1-1-4-2v2h-2l1 4-5-2-5-1-6-3 2-4 17-13 18-13 14-10 20-13 18-11 17-10 24-13 28-14 32-14 39-15 34-11 37-10z" fill="#8AD2D8"/>
<path transform="translate(1661,526)" d="m0 0h33l11 1 1 1 1 56-1 3-2 1h-54l-5-2-1-2v-54l2-3z" fill="#FEFEFE"/>
<path transform="translate(1601,409)" d="m0 0h41l3 2 1 23v34l-1 2-55 1-6-2-1-7 1-50 1-2z" fill="#FEFEFE"/>
<path transform="translate(1025,1214)" d="m0 0h3l18 42 4 9v4l-17 8-30 13-7 2-7-14-11-26-6-14 4-3 17-7z" fill="#010001"/>
<path transform="translate(915,1262)" d="m0 0h3l11 26 11 25v4l-39 17-12 5-5-1-18-42-4-9 1-3 26-11z" fill="#010001"/>
<path transform="translate(805,1309)" d="m0 0h2l13 30 10 23-1 3-30 13-21 9-4-1-13-30-8-19-1-5 26-11 23-10z" fill="#010001"/>
<path transform="translate(1137,1166)" d="m0 0 2 1 8 20 13 30v5l-28 12-23 10-4-1-19-44-3-7v-3l30-13 21-9z" fill="#010001"/>
<path transform="translate(1680,931)" d="m0 0 2 1 5 12 11 26 6 14v3l-24 10-28 12-4-1-12-28-10-24 3-3 30-13z" fill="#010001"/>
<path transform="translate(1356,1071)" d="m0 0h3l15 35 7 16v4l-24 11-26 11h-5l-12-27-10-24 1-4 30-13z" fill="#010001"/>
<path transform="translate(1245,1119)" d="m0 0 4 1 18 41 4 10v3l-28 12-23 10-5-1-17-40-5-11 1-3 28-12z" fill="#010001"/>
<path transform="translate(1568,979)" d="m0 0 4 1 5 13 16 37-1 5-49 21-4-2-17-40-5-12 5-3 35-15z" fill="#010001"/>
<path transform="translate(1601,409)" d="m0 0h41l3 2 1 23v34l-1 2-55 1-6-2-1-7 1-50 1-2zm15 1-25 1-5 1-1 2v53l1 1h58v-57l-15-1z" fill="#E4EDF5"/>
<path transform="translate(1661,526)" d="m0 0h33l11 1 1 1 1 56-1 3-2 1h-54l-5-2-1-2v-54l2-3zm-6 2-8 1-1 1v54l2 2h42l14-1 1-1v-53l-1-2-3-1z" fill="#E4EDF5"/>
<path transform="translate(1837,850)" d="m0 0h10l10 3-1 3-19 8-4-1 3-12z" fill="#F2F9F8"/>
<path transform="translate(1661,526)" d="m0 0h33l7 1v1l-46 1-8 1-1 54h-2v-54l2-3z" fill="#E3ECF4"/>
<path transform="translate(1165,959)" d="m0 0 7 2 8 1v3l-14 6h-4l1-10z" fill="#EFF7F7"/>
<path transform="translate(431,1591)" d="m0 0 5 5 7 6 6 5 3 2 6 2 4 3 7 3v1l-7-1-12-6-10-8-9-9z" fill="#C9E4E8"/>
<path transform="translate(1445,815)" d="m0 0h1l-1 12-4 21h-1v-11l2-6 2-15z" fill="#83D1CF"/>
<path transform="translate(431,1591)" d="m0 0 5 5 7 6 6 5v2l-4-2-8-7-6-6z" fill="#CDE4EB"/>
<path transform="translate(1073,1823)" d="m0 0 3 1 2 2 5-1-1 3-6 3h-3z" fill="#D9E9F1"/>
<path transform="translate(1616,1425)" d="m0 0 2 1-13 16-3 2 2-4 11-14z" fill="#BDE4DE"/>
<path transform="translate(638,809)" d="m0 0 4 1-2 5h-6l-2-3z" fill="#CFE3EE"/>
</svg>
